<svg width="56" height="56" viewBox="0 0 56 56" fill="none" xmlns="http://www.w3.org/2000/svg">
<g clip-path="url(#clip0)">
<path d="M7 35C6.38116 35 5.78767 34.7542 5.35008 34.3166C4.9125 33.879 4.66667 33.2855 4.66667 32.6667V18.6667C4.66667 18.3572 4.78958 18.0605 5.00838 17.8417C5.22717 17.6229 5.52391 17.5 5.83333 17.5H45.5C45.8094 17.5 46.1062 17.6229 46.325 17.8417C46.5438 18.0605 46.6667 18.3572 46.6667 18.6667V21.3523C46.6668 21.8124 46.8056 22.2617 47.0649 22.6417C47.3242 23.0217 47.692 23.3148 48.1203 23.4827L48.1693 23.5013C48.5184 23.6433 48.897 23.6972 49.2718 23.6584C49.6466 23.6195 50.0061 23.4892 50.3186 23.2787C50.6312 23.0683 50.8872 22.7842 51.0642 22.4515C51.2411 22.1189 51.3335 21.7478 51.3333 21.371V7C51.3333 5.14348 50.5958 3.36301 49.2831 2.05025C47.9703 0.737498 46.1899 0 44.3333 0L7 0C5.14348 0 3.36301 0.737498 2.05025 2.05025C0.737498 3.36301 0 5.14348 0 7L0 32.6667C0 34.5232 0.737498 36.3037 2.05025 37.6164C3.36301 38.9292 5.14348 39.6667 7 39.6667H19.943C20.4361 39.6538 20.9106 39.4764 21.2912 39.1627C21.6718 38.8489 21.9364 38.4169 22.043 37.9353L22.078 37.8C22.1793 37.4797 22.2042 37.1402 22.1507 36.8086C22.0972 36.477 21.9668 36.1625 21.77 35.8903C21.5731 35.6182 21.3152 35.3959 21.017 35.2413C20.7188 35.0867 20.3885 35.004 20.0527 35H7ZM4.66667 7C4.66667 6.38116 4.9125 5.78767 5.35008 5.35008C5.78767 4.9125 6.38116 4.66667 7 4.66667H44.3333C44.9522 4.66667 45.5457 4.9125 45.9833 5.35008C46.4208 5.78767 46.6667 6.38116 46.6667 7V9.33333C46.6667 9.64275 46.5438 9.9395 46.325 10.1583C46.1062 10.3771 45.8094 10.5 45.5 10.5H5.83333C5.52391 10.5 5.22717 10.3771 5.00838 10.1583C4.78958 9.9395 4.66667 9.64275 4.66667 9.33333V7Z" fill="#485F6F"/>
<path d="M18.6673 25.6667H11.6673C11.0485 25.6667 10.455 25.9125 10.0174 26.3501C9.57982 26.7877 9.33398 27.3812 9.33398 28C9.33398 28.6188 9.57982 29.2123 10.0174 29.6499C10.455 30.0875 11.0485 30.3333 11.6673 30.3333H18.6673C19.2862 30.3333 19.8796 30.0875 20.3172 29.6499C20.7548 29.2123 21.0007 28.6188 21.0007 28C21.0007 27.3812 20.7548 26.7877 20.3172 26.3501C19.8796 25.9125 19.2862 25.6667 18.6673 25.6667V25.6667Z" fill="#485F6F"/>
<path d="M40.8327 25C37.833 25 34.9007 25.8895 32.4065 27.556C29.9124 29.2226 27.9684 31.5913 26.8205 34.3626C25.6726 37.134 25.3722 40.1835 25.9574 43.1255C26.5427 46.0676 27.9871 48.77 30.1082 50.8911C32.2293 53.0122 34.9318 54.4567 37.8738 55.0419C40.8159 55.6271 43.8654 55.3268 46.6367 54.1788C49.4081 53.0309 51.7768 51.087 53.4433 48.5928C55.1098 46.0987 55.9994 43.1663 55.9994 40.1667C55.9994 36.1442 54.4014 32.2865 51.5571 29.4422C48.7128 26.5979 44.8551 25 40.8327 25V25ZM47.9027 44.7633C48.0746 44.9235 48.2125 45.1167 48.3082 45.3314C48.4038 45.5461 48.4553 45.7778 48.4594 46.0128C48.4635 46.2478 48.4203 46.4812 48.3323 46.6991C48.2443 46.917 48.1133 47.1149 47.9471 47.2811C47.7809 47.4473 47.583 47.5783 47.3651 47.6663C47.1472 47.7543 46.9138 47.7975 46.6788 47.7934C46.4438 47.7892 46.2121 47.7378 45.9974 47.6422C45.7828 47.5465 45.5896 47.4086 45.4294 47.2367L41.2457 43.053C41.1356 42.9444 40.9873 42.8835 40.8327 42.8835C40.6781 42.8835 40.5297 42.9444 40.4197 43.053L36.236 47.2367C35.9043 47.5458 35.4655 47.7141 35.0121 47.7061C34.5588 47.6981 34.1262 47.5144 33.8056 47.1938C33.4849 46.8732 33.3013 46.4406 33.2933 45.9872C33.2853 45.5338 33.4536 45.0951 33.7627 44.7633L37.9464 40.5797C38.0549 40.4696 38.1158 40.3213 38.1158 40.1667C38.1158 40.0121 38.0549 39.8637 37.9464 39.7537L33.7627 35.57C33.4536 35.2383 33.2853 34.7995 33.2933 34.3461C33.3013 33.8927 33.4849 33.4602 33.8056 33.1395C34.1262 32.8189 34.5588 32.6353 35.0121 32.6273C35.4655 32.6193 35.9043 32.7875 36.236 33.0967L40.4197 37.2803C40.5297 37.3889 40.6781 37.4498 40.8327 37.4498C40.9873 37.4498 41.1356 37.3889 41.2457 37.2803L45.4294 33.0967C45.7611 32.7875 46.1999 32.6193 46.6532 32.6273C47.1066 32.6353 47.5392 32.8189 47.8598 33.1395C48.1804 33.4602 48.3641 33.8927 48.3721 34.3461C48.3801 34.7995 48.2118 35.2383 47.9027 35.57L43.719 39.7537C43.6104 39.8637 43.5496 40.0121 43.5496 40.1667C43.5496 40.3213 43.6104 40.4696 43.719 40.5797L47.9027 44.7633Z" fill="#485F6F"/>
</g>
<defs>
<clipPath id="clip0">
<rect width="56" height="56" fill="white"/>
</clipPath>
</defs>
</svg>
