<?xml version="1.0" encoding="UTF-8" standalone="no"?>
<svg width="128px" height="80px" viewBox="0 0 128 80" version="1.1" xmlns="http://www.w3.org/2000/svg" xmlns:xlink="http://www.w3.org/1999/xlink">
    <!-- Generator: Sketch 40.1 (33804) - http://www.bohemiancoding.com/sketch -->
    <title>card-mc 2</title>
    <desc>Created with Sketch.</desc>
    <defs></defs>
    <g id="Page-1" stroke="none" stroke-width="1" fill="none" fill-rule="evenodd">
        <g id="card-mc">
            <path d="M128,75.734 C128,78.091 126.09,80 123.732,80 L4.266,80 C1.91,80 0,78.092 0,75.734 L0,4.27 C0,1.91 1.91,0 4.266,0 L123.733,0 C126.09,0 128,1.91 128,4.27 L128,75.734 L128,75.734 Z" id="background" fill="#000066"></path>
            <g id="circles" transform="translate(25.110817, 10.132045)">
                <path d="M76.7697813,36.7459104 L76.7697813,35.889164 L76.5480699,35.889164 L76.2930292,36.4783599 L76.0379886,35.889164 L75.8162771,35.889164 L75.8162771,36.7459104 L75.9727793,36.7459104 L75.9727793,36.0996955 L76.2118799,36.6567269 L76.3741785,36.6567269 L76.6132791,36.0982335 L76.6132791,36.7459104 L76.7697813,36.7459104 Z M75.3656087,36.7459104 L75.3656087,36.0353664 L75.6496313,36.0353664 L75.6496313,35.890626 L74.9265331,35.890626 L74.9265331,36.0353664 L75.2105556,36.0353664 L75.2105556,36.7459104 L75.3656087,36.7459104 Z" id="trademark" fill="#F79F1A"></path>
                <g>
                    <path d="M76.8142147,24.009299 C76.8142147,37.2663964 66.182395,48.0133991 53.0673782,48.0133991 C39.9523614,48.0133991 29.3205385,37.2663964 29.3205385,24.009299 C29.3205385,10.7521995 39.9523614,0.00519760123 53.0673782,0.00519760123 C66.182395,0.00519760123 76.8142147,10.7521995 76.8142147,24.009299 L76.8142147,24.009299 Z" id="path2997" fill="#F79F1A"></path>
                    <path d="M47.5188873,24.009299 C47.5188873,37.2663964 36.8870676,48.0133991 23.7720508,48.0133991 C10.657034,48.0133991 0.0252110886,37.2663964 0.0252110886,24.009299 C0.0252110886,10.7521995 10.657034,0.00519760123 23.7720508,0.00519760123 C36.8870676,0.00519760123 47.5188873,10.7521995 47.5188873,24.009299 L47.5188873,24.009299 Z" id="path2995" fill="#EA001B"></path>
                    <path d="M38.4197626,5.11309507 C32.8790247,9.50746523 29.3223843,16.3360504 29.3223843,24.0070499 C29.3223843,31.6780493 32.8790247,38.5118463 38.4197626,42.9062168 C43.9605005,38.5118463 47.5171408,31.6780493 47.5171408,24.0070499 C47.5171408,16.3360504 43.9605005,9.50746523 38.4197626,5.11309507 L38.4197626,5.11309507 Z" id="path2999" fill="#FF5F01"></path>
                </g>
            </g>
            <g id="name" transform="translate(28.913015, 61.002389)" fill="#FFFFFF">
                <path d="M72.0549206,8.14699827 C71.8682312,8.15160252 71.7144419,8.21407182 71.5935523,8.3344064 C71.4726622,8.45474512 71.4100983,8.6053373 71.4058606,8.78618344 C71.4100983,8.96566192 71.4726622,9.11586244 71.5935523,9.23678542 C71.714442,9.35771075 71.8682312,9.42057173 72.0549206,9.42536861 C72.2373385,9.42057173 72.3891868,9.35771072 72.510466,9.23678538 C72.6317429,9.11586235 72.6946949,8.96566185 72.6993223,8.78618344 C72.694792,8.6053373 72.632034,8.45474509 72.5110483,8.33440636 C72.3900601,8.21407175 72.2380177,8.15160245 72.0549206,8.14699827 L72.0549206,8.14699827 Z M72.0549206,9.28437189 C71.9126793,9.2808481 71.7953802,9.2322826 71.7030229,9.13867521 C71.6106648,9.04507034 71.5628523,8.92757321 71.5595854,8.78618344 C71.5628524,8.64417661 71.6106649,8.52674469 71.7030229,8.43388734 C71.7953802,8.34103392 71.9126793,8.2929254 72.0549206,8.28956162 C72.1941842,8.29292547 72.3096718,8.34103399 72.4013835,8.43388739 C72.4930932,8.52674469 72.5406469,8.64417661 72.5440448,8.78618344 C72.5406469,8.92757326 72.4930932,9.04507041 72.4013836,9.13867521 C72.3096718,9.23228253 72.1941843,9.28084804 72.0549206,9.28437189 L72.0549206,9.28437189 Z M72.0921872,8.48695704 L71.8204516,8.48695704 L71.8204516,9.08070994 L71.9462264,9.08070994 L71.9462264,8.85824843 L72.0036791,8.85824843 L72.1822482,9.08070994 L72.3328674,9.08070994 L72.1403233,8.8566818 C72.20046,8.84907865 72.2467197,8.82943046 72.2791025,8.79773726 C72.3114833,8.76604724 72.3278521,8.7256413 72.328209,8.67651932 C72.3277875,8.61790295 72.3072779,8.57181793 72.2666803,8.53826412 C72.2260808,8.50471402 72.1679165,8.48761167 72.0921872,8.48695704 L72.0921872,8.48695704 Z M72.0906344,8.59818779 C72.1243741,8.59822221 72.1508359,8.60481518 72.17002,8.61796641 C72.1892024,8.63112128 72.1989719,8.65063891 72.1993287,8.67651927 C72.1989709,8.70315358 72.1892024,8.72312808 72.17002,8.73644277 C72.150836,8.74976088 72.1243741,8.75641892 72.0906344,8.75641733 L71.9462264,8.75641733 L71.9462264,8.59818766 L72.0906344,8.59818779 Z" id="trademark"></path>
                <g transform="translate(0.000000, 0.000000)">
                    <path d="M1.50563331,9.01762751 L0.158106296,9.01762751 L0.158106296,2.67305647 L1.47921118,2.67305647 L1.47921118,3.44613393 C1.47921118,3.44613393 2.63957219,2.50129984 3.32875807,2.5131101 C4.66878649,2.53607514 5.46894745,3.68605515 5.46894745,3.68605515 C5.46894745,3.68605515 6.11803718,2.5131101 7.58271652,2.5131101 C9.74865339,2.5131101 10.0663931,4.51244974 10.0663931,4.51244974 L10.0663931,8.99096978 L8.77171007,8.99096978 L8.77171007,5.04560597 C8.77171007,5.04560597 8.77635536,3.84600319 7.37133911,3.84600319 C5.91841022,3.84600319 5.78601273,5.04560597 5.78601273,5.04560597 L5.78601273,8.99096978 L4.43848572,8.99096978 L4.43848572,5.01894824 C4.43848572,5.01894824 4.30903411,3.76602834 3.0909592,3.76602834 C1.5089723,3.76602834 1.47921118,5.04560597 1.47921118,5.04560597 L1.50563331,9.01762751 Z" id="path3006"></path>
                    <path d="M42.4854279,2.51224447 C41.7962415,2.50043588 40.6359893,3.44521493 40.6359893,3.44521493 L40.6359893,2.67382036 L39.3134857,2.67382036 L39.3134857,9.01697704 L40.6618194,9.01697704 L40.6359893,5.04533744 C40.6359893,5.04533744 40.6658035,3.76836671 42.2477905,3.76836671 C42.5415946,3.76836671 42.7697761,3.84016728 42.9503706,3.9507911 L42.9503706,3.94558731 L43.3894831,2.71031358 C43.124503,2.59779171 42.8231623,2.51803201 42.4854279,2.51224447 L42.4854279,2.51224447 Z" id="path3008"></path>
                    <path d="M61.4676047,2.51224447 C60.7784183,2.50043588 59.618166,3.44521493 59.618166,3.44521493 L59.618166,2.67382036 L58.2956624,2.67382036 L58.2956624,9.01697704 L59.6439962,9.01697704 L59.618166,5.04533744 C59.618166,5.04533744 59.6479802,3.76836671 61.2299673,3.76836671 C61.5237714,3.76836671 61.7519528,3.84016728 61.9325473,3.9507911 L61.9325473,3.94558731 L62.3716598,2.71031358 C62.1066797,2.59780005 61.805339,2.51804035 61.4676047,2.51225281 L61.4676047,2.51224447 Z" id="path3013"></path>
                    <path d="M14.4235548,2.48618384 C12.4068889,2.48618384 11.3396583,4.31490935 11.3342691,5.84279264 C11.3287311,7.4088537 12.5492168,9.21503781 14.4803811,9.21503781 C15.607012,9.21503781 16.5325447,8.37588561 16.5325447,8.37588561 L16.530098,9.02218917 L17.8564948,9.02218917 L17.8564948,2.67132187 L16.5254263,2.67132187 L16.5254263,3.47127555 C16.5254263,3.47127555 15.6562604,2.48618384 14.4235614,2.48618384 L14.4235548,2.48618384 Z M14.6818563,3.77879096 C15.7653504,3.77879096 16.6449476,4.72966944 16.6449476,5.90012602 C16.6449476,7.07058259 15.7653504,8.01624895 14.6818563,8.01624895 C13.5983622,8.01624895 12.723931,7.07058259 12.723931,5.90012602 C12.723931,4.72966944 13.5983622,3.77879096 14.6818563,3.77879096 L14.6818563,3.77879096 Z" id="path3015"></path>
                    <path d="M53.1055054,2.48618384 C51.0888395,2.48618384 50.0216088,4.31490935 50.0162196,5.84279264 C50.0106816,7.4088537 51.2311673,9.21503781 53.1623317,9.21503781 C54.2889626,9.21503781 55.2144952,8.37588561 55.2144952,8.37588561 L55.2120486,9.02218917 L56.5384453,9.02218917 L56.5384453,2.67132187 L55.2073769,2.67132187 L55.2073769,3.47127555 C55.2073769,3.47127555 54.338211,2.48618384 53.105512,2.48618384 L53.1055054,2.48618384 Z M53.3638068,3.77879096 C54.447301,3.77879096 55.3268981,4.72966944 55.3268981,5.90012602 C55.3268981,7.07058259 54.447301,8.01624895 53.3638068,8.01624895 C52.2803127,8.01624895 51.4058816,7.07058259 51.4058816,5.90012602 C51.4058816,4.72966944 52.2803127,3.77879096 53.3638068,3.77879096 L53.3638068,3.77879096 Z" id="path3020"></path>
                    <path d="M65.8409571,2.48618384 C63.8242912,2.48618384 62.7570605,4.31490935 62.7516713,5.84279264 C62.7461334,7.4088537 63.966619,9.21503781 65.8977834,9.21503781 C67.0244143,9.21503781 67.9499469,8.37588561 67.9499469,8.37588561 L67.9475003,9.02218917 L69.273897,9.02218917 L69.273897,0.164277855 L67.9428286,0.164277855 L67.9428286,3.47127555 C67.9428286,3.47127555 67.0736627,2.48618384 65.8409637,2.48618384 L65.8409571,2.48618384 Z M66.0992586,3.77879096 C67.1827527,3.77879096 68.0623498,4.72966944 68.0623498,5.90012602 C68.0623498,7.07058259 67.1827527,8.01624895 66.0992586,8.01624895 C65.0157644,8.01624895 64.1413333,7.07058259 64.1413333,5.90012602 C64.1413333,4.72966944 65.0157644,3.77879096 66.0992586,3.77879096 L66.0992586,3.77879096 Z" id="path3022"></path>
                    <path d="M21.903493,9.23088934 C20.5295853,9.23088934 19.2612829,8.3778387 19.2612829,8.3778387 L19.8425695,7.47147093 C19.8425695,7.47147093 21.0426373,8.03128656 21.903493,8.03128656 C22.4628128,8.03128656 23.3982642,7.84906231 23.4095518,7.28486683 C23.4214874,6.68856966 21.8374372,6.5117877 21.8374372,6.5117877 C21.8374372,6.5117877 19.4726603,6.47924069 19.4726603,4.51244974 C19.4726603,3.2755198 20.653694,2.48645237 22.1677143,2.48645237 C23.0425306,2.48645237 24.6778129,3.25952983 24.6778129,3.25952983 L24.0172604,4.29918624 C24.0172604,4.29918624 22.7546447,3.79025096 22.0884467,3.76602834 C21.5258967,3.74557512 20.8466093,4.01732784 20.8466093,4.51244974 C20.8466093,5.85764678 24.7835008,4.40763681 24.7835008,7.12491879 C24.7835008,8.9076008 23.1801321,9.23088934 21.903493,9.23088934 L21.903493,9.23088934 Z" id="path3024"></path>
                    <path d="M26.9718408,0.833940073 L26.9718408,2.67903248 L25.7991521,2.67903248 L25.7991521,4.0133366 L26.9718408,4.0133366 L26.9718408,7.20315738 C26.9718408,7.20315738 26.8680541,9.36097732 29.1674034,9.36097732 C29.8031227,9.36097732 31.0478382,8.8866739 31.0478382,8.8866739 L30.5157372,7.50024853 C30.5157372,7.50024853 30.0207456,7.92625014 29.4618671,7.91200644 C28.3992339,7.88493508 28.4286612,7.19794526 28.4286612,7.19794526 L28.4286612,4.0133366 L30.6190578,4.0133366 L30.6190578,2.67903248 L28.4286612,2.67903248 L28.4286612,0.833940073 L26.9718408,0.833940073 L26.9718408,0.833940073 Z" id="path3026"></path>
                    <path d="M34.9533567,2.56436572 C32.7909608,2.56436572 31.7105448,4.36135647 31.7194221,5.92097452 C31.7285474,7.52486811 32.7032639,9.32970457 35.0825074,9.32970457 C36.1008501,9.32970457 37.5312055,8.42800686 37.5312055,8.42800686 L36.9164479,7.34909689 C36.9164479,7.34909689 35.9403923,8.0475217 35.0825074,8.0475217 C33.3649141,8.0475217 33.2537329,6.35358093 33.2537329,6.35358093 L37.8514993,6.35358093 C37.8514993,6.35358093 38.1945104,2.56436572 34.9533567,2.56436572 L34.9533567,2.56436572 Z M34.7570475,3.81006371 C34.8080367,3.80714492 34.862699,3.81006371 34.9171945,3.81006371 C36.5353272,3.81006371 36.5238297,5.35285284 36.5238297,5.35285284 L33.2537329,5.35285284 C33.2537329,5.35285284 33.1763764,3.90072634 34.7570475,3.81006371 L34.7570475,3.81006371 Z" id="path3034"></path>
                    <path d="M48.6295134,7.33276835 L49.2460613,8.57686517 C49.2460613,8.57686517 48.2688684,9.21776312 47.1722219,9.21776312 C44.901804,9.21776312 43.6410878,7.49377716 43.6410878,5.86247195 C43.6410878,3.29865997 45.6473786,2.54487988 47.0040722,2.54487988 C48.2355231,2.54487988 49.3021107,3.2611777 49.3021107,3.2611777 L48.6108314,4.50527451 C48.6108314,4.50527451 48.1917333,3.84552618 46.9667049,3.84552618 C45.7437213,3.84552618 45.0983809,4.90936685 45.0983809,5.91902143 C45.0983809,7.05047796 45.8495299,8.0113654 46.9853886,8.0113654 C47.8764485,8.0113654 48.6295134,7.33276835 48.6295134,7.33276835 L48.6295134,7.33276835 Z" id="path3037"></path>
                </g>
            </g>
        </g>
    </g>
</svg>