<svg width="240" height="150" fill="none" xmlns="http://www.w3.org/2000/svg"><g clip-path="url(#clip0)" fill="#485F6F"><path d="M84.2 97H57.8c-2.3 0-4.6.9-6.2 2.5-1.7 1.6-2.6 3.8-2.6 6s.9 4.4 2.6 6c1.7 1.6 3.9 2.5 6.2 2.5h26.4c2.3 0 4.6-.9 6.2-2.5 1.7-1.6 2.6-3.8 2.6-6s-.9-4.4-2.6-6c-1.6-1.6-3.9-2.5-6.2-2.5z"/><path d="M151.8 132.4H39.6c-2.4 0-4.6-.9-6.3-2.6-1.7-1.7-2.6-3.9-2.6-6.2v-53c0-1.2.5-2.3 1.3-3.1.8-.8 2-1.3 3.1-1.3h133.5c8.4-5.9 18.7-9.3 29.8-9.3 10.1 0 19.5 2.9 27.5 7.9V26.5c0-7-2.8-13.8-7.8-18.7-5-5-11.8-7.8-18.8-7.8H39.6c-7 0-13.8 2.8-18.8 7.8S13 19.5 13 26.5v97.1c0 7 2.8 13.8 7.8 18.7 5 5 11.8 7.8 18.8 7.8h126.5c-6-4.8-10.9-10.9-14.3-17.7zM30.8 26.5c0-2.3.9-4.6 2.6-6.2 1.7-1.7 3.9-2.6 6.3-2.6h159.8c2.4 0 4.6.9 6.3 2.6 1.7 1.7 2.6 3.9 2.6 6.2v8.8c0 1.2-.5 2.3-1.3 3.1-.8.8-2 1.3-3.1 1.3H35.2c-1.2 0-2.3-.5-3.1-1.3-.8-.8-1.3-1.9-1.3-3.1v-8.8z"/><path d="M198.7 68.4c-8.1 0-16 2.4-22.8 6.8-6.7 4.5-12 10.8-15.1 18.2-3.1 7.4-3.9 15.5-2.3 23.4 1.6 7.9 5.5 15.1 11.2 20.7 5.7 5.6 13 9.5 21 11.1 8 1.6 16.2.8 23.7-2.3 7.5-3.1 13.9-8.3 18.4-14.9 4.5-6.7 6.9-14.5 6.9-22.5 0-10.7-4.3-21-12-28.6-7.7-7.6-18.2-11.9-29-11.9zm19.1 52.8c.5.4.8.9 1.1 1.5.3.6.4 1.2.4 1.8 0 .6-.1 1.3-.3 1.8-.2.6-.6 1.1-1 1.6-.4.4-1 .8-1.6 1-.6.2-1.2.4-1.9.3-.7-.1-1.3-.1-1.8-.4-.6-.3-1.1-.6-1.5-1.1l-11.3-11.2c-.3-.3-.7-.5-1.1-.5-.4 0-.8.2-1.1.5l-11.3 11.2c-.9.8-2.1 1.3-3.3 1.3-1.2 0-2.4-.5-3.3-1.4-.9-.9-1.4-2-1.4-3.2 0-1.2.4-2.4 1.3-3.3l11.3-11.2c.3-.3.5-.7.5-1.1 0-.4-.2-.8-.5-1.1l-11.3-11.2c-.8-.9-1.3-2.1-1.3-3.3 0-1.2.5-2.4 1.4-3.2.9-.9 2-1.3 3.3-1.4 1.2 0 2.4.4 3.3 1.3l11.3 11.2c.3.3.7.5 1.1.5.4 0 .8-.2 1.1-.5l11.3-11.2c.9-.8 2.1-1.3 3.3-1.3 1.2 0 2.4.5 3.3 1.4.9.9 1.4 2 1.4 3.2 0 1.2-.4 2.4-1.3 3.3l-11.3 11.2c-.3.3-.5.7-.5 1.1 0 .4.2.8.5 1.1l11.2 11.3z"/></g><defs><clipPath id="clip0"><path fill="#fff" d="M13 0h226.7v150H13z"/></clipPath></defs></svg>