<svg width="56" height="56" fill="none" xmlns="http://www.w3.org/2000/svg"><g clip-path="url(#clip0)" fill="#485F6F"><path d="M49 8.167H7a7 7 0 00-7 7v25.666a7 7 0 007 7h42a7 7 0 007-7V15.167a7 7 0 00-7-7zM7 12.833h42a2.333 2.333 0 012.333 2.334V17.5a1.167 1.167 0 01-1.166 1.167H5.833A1.167 1.167 0 014.667 17.5v-2.333A2.333 2.333 0 017 12.833zm42 30.334H7a2.334 2.334 0 01-2.333-2.334v-14a1.167 1.167 0 011.166-1.166h44.334a1.167 1.167 0 011.166 1.166v14A2.333 2.333 0 0149 43.167z"/><path d="M18.667 33.833h-7a2.334 2.334 0 000 4.667h7a2.333 2.333 0 100-4.667z"/></g><defs><clipPath id="clip0"><path fill="#fff" d="M0 0h56v56H0z"/></clipPath></defs></svg>