<svg width="240" height="150" fill="none" xmlns="http://www.w3.org/2000/svg"><path d="M63.545 92.647c-1.64 0-3.211-.65-4.37-1.809a6.174 6.174 0 01-1.811-4.367V49.41a3.087 3.087 0 013.09-3.087h105.091a3.093 3.093 0 013.091 3.088v7.109a6.06 6.06 0 003.852 5.639l.129.05a6.096 6.096 0 007.67-2.78c.469-.88.714-1.862.713-2.86V18.53c0-4.915-1.954-9.628-5.432-13.103A18.553 18.553 0 00162.455 0h-98.91a18.554 18.554 0 00-13.113 5.427A18.521 18.521 0 0045 18.53v67.942c0 4.914 1.954 9.627 5.432 13.102A18.553 18.553 0 0063.545 105h34.291a5.854 5.854 0 005.564-4.583l.092-.358a5.679 5.679 0 00-.816-5.055 5.7 5.7 0 00-4.55-2.357h-34.58zM57.364 18.53c0-1.638.65-3.209 1.81-4.367a6.185 6.185 0 014.371-1.81h98.91c1.639 0 3.211.652 4.371 1.81a6.174 6.174 0 011.81 4.367v6.177a3.085 3.085 0 01-3.091 3.088H60.455a3.092 3.092 0 01-3.091-3.088v-6.177z" fill="#485F6F"/><path d="M94 68H76c-1.591 0-3.117.685-4.243 1.904C70.632 71.123 70 72.776 70 74.5c0 1.724.632 3.377 1.757 4.596C72.883 80.316 74.41 81 76 81h18c1.591 0 3.117-.685 4.243-1.904C99.368 77.877 100 76.224 100 74.5c0-1.724-.632-3.377-1.757-4.596C97.117 68.684 95.59 68 94 68zM154 67a41.359 41.359 0 00-22.778 6.826A40.607 40.607 0 00116.121 92a40.043 40.043 0 00-2.333 23.4 40.351 40.351 0 0011.221 20.737 41.16 41.16 0 0020.992 11.084 41.48 41.48 0 0023.689-2.305 40.891 40.891 0 0018.4-14.916A40.154 40.154 0 00195 107.5c0-10.741-4.32-21.043-12.009-28.638C175.302 71.267 164.874 67 154 67zm19.112 52.775a4.646 4.646 0 011.505 3.336 4.629 4.629 0 01-1.385 3.387 4.726 4.726 0 01-1.573 1.028 4.784 4.784 0 01-3.697-.064 4.73 4.73 0 01-1.536-1.083l-11.31-11.172a1.597 1.597 0 00-1.116-.452c-.418 0-.819.162-1.116.452l-11.31 11.172a4.764 4.764 0 01-3.309 1.254 4.761 4.761 0 01-3.261-1.368 4.643 4.643 0 01-1.385-3.222 4.636 4.636 0 011.269-3.268l11.309-11.172a1.559 1.559 0 000-2.206l-11.309-11.172a4.638 4.638 0 01-1.269-3.268 4.642 4.642 0 011.385-3.222 4.757 4.757 0 013.261-1.368 4.764 4.764 0 013.309 1.254l11.31 11.172a1.6 1.6 0 002.232 0l11.31-11.172a4.764 4.764 0 013.309-1.254 4.757 4.757 0 013.261 1.368 4.642 4.642 0 011.385 3.222 4.638 4.638 0 01-1.269 3.268l-11.309 11.172a1.559 1.559 0 000 2.206l11.309 11.172z" fill="#485F6F"/></svg>