<?xml version="1.0" encoding="UTF-8" standalone="no"?>
<svg width="128px" height="80px" viewBox="0 0 128 80" version="1.1" xmlns="http://www.w3.org/2000/svg" xmlns:xlink="http://www.w3.org/1999/xlink">
    <!-- Generator: Sketch 40.1 (33804) - http://www.bohemiancoding.com/sketch -->
    <title>Slice 1</title>
    <desc>Created with Sketch.</desc>
    <defs></defs>
    <g id="Page-1" stroke="none" stroke-width="1" fill="none" fill-rule="evenodd">
        <g id="card-cc-plain" opacity="0.5" transform="translate(10.000000, 7.000000)">
            <path d="M3.66265625,68.8921875 C1.70328125,68.8921875 0.107421875,67.290525 0.107421875,65.3214375 L0.107421875,3.6802875 C0.107421875,1.7112 1.7015625,0.1078125 3.66265625,0.1078125 L106.327891,0.1078125 C108.293281,0.1078125 109.892578,1.7103375 109.892578,3.68115 L109.892578,65.3214375 C109.892578,67.290525 108.294141,68.8921875 106.327891,68.8921875 L3.66265625,68.8921875 L3.66265625,68.8921875 Z" id="Shape" fill="#FFFFFF"></path>
            <path d="M106.327891,0.215625 C108.235703,0.215625 109.785156,1.76985 109.785156,3.68115 L109.785156,65.3214375 C109.785156,67.2310125 108.233984,68.7852375 106.327891,68.7852375 L3.66265625,68.7852375 C1.76171875,68.784375 0.21484375,67.231875 0.21484375,65.3223 L0.21484375,3.68115 C0.21484375,1.7707125 1.76171875,0.215625 3.66265625,0.215625 L106.327891,0.215625 L106.327891,0.215625 Z M106.327891,0 L3.66265625,0 C1.63796875,0 0,1.647375 0,3.68115 L0,65.3214375 C0,67.352625 1.63796875,69 3.66265625,69 L106.327891,69 C108.356016,69 110,67.352625 110,65.320575 L110,3.68115 C110,1.647375 108.355156,0 106.327891,0 L106.327891,0 Z" id="Shape" fill="#848484"></path>
            <ellipse id="Oval" fill="#F2706C" cx="74.9976562" cy="49.6463625" rx="11.5001562" ry="11.541975"></ellipse>
            <ellipse id="Oval" fill="#8FD7F1" cx="86.4995312" cy="49.6463625" rx="11.5010156" ry="11.5428375"></ellipse>
            <polygon id="Shape" fill="#4A4A4A" points="0.00171875 12.790875 110 12.790875 110 25.624875 0.00171875 25.624875"></polygon>
            <path d="M9.68945312,38.103525 L48.2470312,38.103525 L48.2470312,42.2995875 L9.68945312,42.2995875 L9.68945312,38.103525 Z M9.68945312,47.5453125 L48.2470312,47.5453125 L48.2470312,51.7456875 L9.68945312,51.7456875 L9.68945312,47.5453125 Z M9.68945312,56.99055 L48.2470312,56.99055 L48.2470312,61.1883375 L9.68945312,61.1883375 L9.68945312,56.99055 Z" id="Shape" fill="#C9C9C9"></path>
        </g>
        <path d="M6,74 L122,6" id="Line" stroke="#F2706C" stroke-width="8" stroke-linecap="square"></path>
    </g>
</svg>