<svg width="56" height="56" fill="none" xmlns="http://www.w3.org/2000/svg"><g clip-path="url(#clip0)" fill="#485F6F"><path d="M7 35a2.333 2.333 0 01-2.333-2.333v-14A1.167 1.167 0 015.833 17.5H45.5a1.167 1.167 0 011.167 1.167v2.685a2.288 2.288 0 001.453 2.13l.05.02a2.298 2.298 0 003.163-2.131V7a7 7 0 00-7-7H7a7 7 0 00-7 7v25.667a7 7 0 007 7h12.943a2.21 2.21 0 002.1-1.732l.035-.135a2.151 2.151 0 00-2.025-2.8H7zM4.667 7A2.333 2.333 0 017 4.667h37.333A2.333 2.333 0 0146.667 7v2.333A1.167 1.167 0 0145.5 10.5H5.833a1.167 1.167 0 01-1.166-1.167V7z"/><path d="M18.667 25.667h-7a2.333 2.333 0 100 4.666h7a2.333 2.333 0 100-4.666zM40.833 25a15.167 15.167 0 100 30.334 15.167 15.167 0 000-30.334zm7.07 19.763a1.75 1.75 0 11-2.474 2.474l-4.183-4.184a.588.588 0 00-.826 0l-4.184 4.184a1.75 1.75 0 01-2.473-2.474l4.183-4.183a.588.588 0 000-.826l-4.183-4.184a1.75 1.75 0 012.473-2.473l4.184 4.183a.588.588 0 00.826 0l4.183-4.183a1.75 1.75 0 012.474 2.473l-4.184 4.184a.588.588 0 000 .826l4.184 4.183z"/></g><defs><clipPath id="clip0"><path fill="#fff" d="M0 0h56v56H0z"/></clipPath></defs></svg>