<svg xmlns="http://www.w3.org/2000/svg" viewBox="0 0 128 80"><path d="M128 75.734c0 2.357-1.91 4.266-4.268 4.266H4.266C1.91 80 0 78.092 0 75.734V4.27C0 1.91 1.91 0 4.266 0h119.467C126.09 0 128 1.91 128 4.27v71.464z" fill="#14477C"/><path fill-rule="evenodd" clip-rule="evenodd" fill="#FBB230" d="M79.36 62.965l1.185-.03 1.17-.086 1.146-.148L84 62.5l1.11-.255 1.092-.31 1.07-.365 1.042-.41 1.023-.465.992-.502.96-.56.937-.595.9-.642.866-.682.837-.72.797-.767.768-.8.72-.837.683-.865.64-.9.597-.936.56-.963.5-.99.466-1.023.41-1.047.366-1.07.31-1.09.255-1.108.203-1.14.148-1.147.086-1.168.03-1.186-.03-1.18-.085-1.16-.147-1.147-.202-1.124-.254-1.108-.31-1.085-.365-1.068-.41-1.04-.464-1.013-.502-.993-.56-.952-.595-.938-.642-.898-.684-.86-.72-.836-.767-.798-.797-.76-.837-.72-.867-.682-.9-.642-.936-.598-.96-.55-.993-.502-1.023-.467-1.043-.408-1.068-.364-1.093-.31-1.11-.256-1.14-.2-1.145-.148-1.17-.087-1.186-.03-1.176.03-1.17.087-1.147.148-1.132.2-1.108.256-1.093.31-1.06.364-1.046.41-1.015.466-.982.502-.96.55-.93.598-.897.642-.87.68-.83.722-.797.76-.758.798-.72.836-.682.86-.635.898-.597.938-.55.952-.51.993-.458 1.013-.41 1.04-.356 1.067-.31 1.085-.258 1.107-.2 1.123-.146 1.146-.086 1.16-.032 1.18.032 1.185.086 1.168.145 1.148.202 1.14.257 1.107.31 1.09.355 1.07.41 1.047.457 1.022.512.99.55.963.597.935.636.9.682.865.72.838.758.8.798.765.83.72.87.683.895.642.93.596.96.56.983.5 1.015.466 1.047.41 1.06.366 1.092.31 1.108.254 1.132.202 1.147.147 1.17.084 1.175.03"/><path fill-rule="evenodd" clip-rule="evenodd" fill="#EB2230" d="M48.64 62.965l1.174-.03 1.17-.086 1.15-.148 1.13-.202 1.107-.255 1.09-.31 1.063-.365 1.047-.41 1.015-.465.984-.502.958-.56.93-.595.9-.642.867-.682.83-.72.796-.767.76-.8.722-.837.68-.865.635-.9.596-.936.55-.963.513-.99.456-1.023.41-1.047.357-1.07.31-1.09.256-1.108.2-1.14.148-1.147.084-1.168.03-1.186-.03-1.18-.084-1.16-.15-1.147-.198-1.124-.257-1.108-.31-1.085-.357-1.068-.41-1.04-.457-1.013-.512-.993-.55-.952-.597-.938-.635-.898-.68-.86-.722-.836-.76-.798-.796-.76-.83-.72-.867-.682-.898-.642-.932-.598-.96-.55-.983-.502-1.015-.467-1.047-.408-1.062-.364-1.09-.31-1.107-.256-1.13-.2-1.15-.148-1.17-.087-1.174-.03-1.187.03-1.17.087-1.146.148-1.14.2-1.106.256-1.092.31-1.07.364-1.044.41-1.023.466-.99.502-.96.55-.94.598-.898.642-.867.68-.837.722-.797.76-.766.798-.72.836-.682.86-.643.898-.597.938-.56.952-.5.993-.468 1.013-.408 1.04-.365 1.067-.31 1.085-.255 1.107-.202 1.123-.148 1.146-.085 1.16-.03 1.18.03 1.185.085 1.168.148 1.148.202 1.14.255 1.107.31 1.09.365 1.07.408 1.047.467 1.022.502.99.56.963.595.935.642.9.682.865.72.838.767.8.798.765.837.72.867.683.9.642.938.596.96.56.99.5 1.024.466 1.044.41 1.07.366 1.093.31 1.107.254 1.14.202 1.146.147 1.17.084 1.186.03"/><path fill-rule="evenodd" clip-rule="evenodd" fill="#FBB230" d="M61.312 25.845h12.202v-1.247h-11.15l-1.052 1.247M59.483 28.617h14.03V27.37H60.22l-.737 1.247M58.118 31.384h15.396v-1.247H58.662l-.544 1.247M57.182 34.156h16.332V32.91H57.57l-.388 1.246M57.726 47.56H73.55v-1.25H57.338l.39 1.25M58.894 50.33H73.55v-1.247H58.314l.58 1.248M60.536 53.097H73.55V51.85H59.754l.783 1.247M62.798 55.87H73.55v-1.256H61.707l1.092 1.256M56.634 36.922h16.88v-1.246H56.872l-.238 1.246M66.92 44.793h6.435v-1.25H67.15l-.23 1.25M67.43 42.026h5.925V40.77h-5.692l-.232 1.256M56.207 40.77h1.672v1.256h-1.596l-.077-1.255"/><path fill-rule="evenodd" clip-rule="evenodd" fill="#FFF" d="M53.084 39.26l-.108-.007-.11-.015-.1-.014-.1-.017-.093-.015-.1-.015-.1-.016-.11-.014-.11-.015-.122-.01-.138-.007-.146-.008h-.163l-.18.008-.2.018-.224.016-.157.023-.147.022-.132.046-.117.046-.108.055-.1.06-.078.08-.07.068-.048.086-.04.085-.014.092v.093l.024.1.03.1.062.102.077.1.156.147.187.116.215.1.233.086.247.078.257.085.254.093.247.1.234.13.216.163.195.195.162.24.124.295.078.35.032.417-.032.49-.054.363-.094.317-.123.294-.156.256-.176.226-.2.192-.22.17-.238.148-.247.116-.258.1-.264.078-.27.062-.264.048-.257.022-.254.017-.24.007h-.333l-.31-.006h-.272l-.255-.007-.233-.01-.21-.014-.185-.017-.177-.024-.163-.016-.148-.03-.145-.025-.134-.04-.13-.03-.125-.047-.124-.045-.132-.047.35-1.71.068.015.086.022.107.03.13.033.14.03.154.03.172.04.185.03.194.032.202.03.21.025.216.022.226.007.225.008h.225l.223-.008.226-.046.18-.06.14-.085.107-.11.076-.108.06-.124.04-.124.032-.117.014-.225-.07-.193-.13-.156-.194-.133-.232-.115-.273-.117-.3-.108-.304-.123-.308-.14-.296-.163-.272-.2-.247-.24-.194-.296-.138-.348-.07-.417.01-.497.036-.303.055-.287.076-.263.094-.247.124-.232.14-.2.162-.195.194-.17.224-.147.248-.124.28-.116.31-.084.347-.073.38-.052.416-.03.46-.01h.284l.263.01.24.008.218.008.194.014.18.015.153.017.14.016.13.013.11.024.102.015.09.014.076.015.073.008.068.015.06.008-.394 1.75"/><path fill="none" stroke="#FFF" stroke-width=".216" stroke-miterlimit="2.613" d="M53.084 39.26l-.108-.007-.11-.015-.1-.014-.1-.017-.093-.015-.1-.015-.1-.016-.11-.014-.11-.015-.122-.01-.138-.007-.146-.008h-.163l-.18.008-.2.018-.224.016-.157.023-.147.022-.132.046-.117.046-.108.055-.1.06-.078.08-.07.068-.048.086-.04.085-.014.092v.093l.024.1.03.1.062.102.077.1.156.147.187.116.215.1.233.086.247.078.257.085.254.093.247.1.234.13.216.163.195.195.162.24.124.295.078.35.032.417-.032.49-.054.363-.094.317-.123.294-.156.256-.176.226-.2.192-.22.17-.238.148-.247.116-.258.1-.264.078-.27.062-.264.048-.257.022-.254.017-.24.007h-.333l-.31-.006h-.272l-.255-.007-.233-.01-.21-.014-.185-.017-.177-.024-.163-.016-.148-.03-.145-.025-.134-.04-.13-.03-.125-.047-.124-.045-.132-.047.35-1.71.068.015.086.022.107.03.13.033.14.03.154.03.172.04.185.03.194.032.202.03.21.025.216.022.226.007.225.008h.225l.223-.008.226-.046.18-.06.14-.085.107-.11.076-.108.06-.124.04-.124.032-.117.014-.225-.07-.193-.13-.156-.194-.133-.232-.115-.273-.117-.3-.108-.304-.123-.308-.14-.296-.163-.272-.2-.247-.24-.194-.296-.138-.348-.07-.417.01-.497.036-.303.055-.287.076-.263.094-.247.124-.232.14-.2.162-.195.194-.17.224-.147.248-.124.28-.116.31-.084.347-.073.38-.052.416-.03.46-.01h.284l.263.01.24.008.218.008.194.014.18.015.153.017.14.016.13.013.11.024.102.015.09.014.076.015.073.008.068.015.06.008-.394 1.75"/><path fill-rule="evenodd" clip-rule="evenodd" fill="#FFF" d="M54.92 35.598h2.145l-.316 1.876h1.292l-.278 1.75-1.364-.04-.744 4.323-.008.155.04.13.077.103.1.084.14.052.156.047.17.03.186.016.172-.008.155-.014.137-.025.125-.03.1-.032.07-.023.046-.016.017-.01-.272 1.442-.053.04-.054.03-.056.03-.053.03-.055.024-.062.024-.07.023-.07.024-.077.022-.078.015-.09.016-.095.017-.102.016-.115.014-.123.016-.132.016h-.588l-.31-.025-.272-.03-.247-.047-.21-.055-.178-.07-.146-.075-.133-.094-.1-.102-.08-.107-.053-.132-.04-.134-.022-.146-.007-.163v-.17l.023-.177.022-.194 1.48-8.452"/><path fill="none" stroke="#FFF" stroke-width=".216" stroke-miterlimit="2.613" d="M54.92 35.598h2.145l-.316 1.876h1.292l-.278 1.75-1.364-.04-.744 4.323-.008.155.04.13.077.103.1.084.14.052.156.047.17.03.186.016.172-.008.155-.014.137-.025.125-.03.1-.032.07-.023.046-.016.017-.01-.272 1.442-.053.04-.054.03-.056.03-.053.03-.055.024-.062.024-.07.023-.07.024-.077.022-.078.015-.09.016-.095.017-.102.016-.115.014-.123.016-.132.016h-.588l-.31-.025-.272-.03-.247-.047-.21-.055-.178-.07-.146-.075-.133-.094-.1-.102-.08-.107-.053-.132-.04-.134-.022-.146-.007-.163v-.17l.023-.177.022-.194 1.48-8.452"/><path fill="none" stroke="#FFF" stroke-width=".216" stroke-miterlimit="2.613" d="M59.753 42.144l-.02.13-.008.14.01.147.034.148.054.147.062.14.084.148.093.13.11.134.116.116.122.115.14.092.137.087.157.068.153.054.155.03.204.032.19.023.202.024.203.014.2.008h.208l.204-.008.207-.015.21-.032.21-.04.216-.045.21-.07.217-.086.225-.093.215-.122.227-.133-.31 1.905-.125.06-.126.065-.124.045-.115.048-.115.037-.126.04-.124.03-.13.023-.14.024-.156.016-.162.014-.18.016-.2.01h-.21l-.24.006h-.254l-.38-.008-.388-.04-.386-.054-.39-.094-.377-.114-.365-.15-.35-.192-.324-.225-.303-.263-.262-.318-.224-.357-.19-.41-.13-.457-.085-.52-.023-.572.038-.636.032-.248.046-.287.062-.3.086-.327.117-.33.138-.336.18-.34.215-.326.25-.31.3-.293.34-.264.39-.232.45-.195.503-.14.557-.09.628-.034.3.007.32.03.315.054.32.08.31.117.3.14.28.185.256.216.232.264.193.31.156.355.107.412.062.462.007.527-.053.588-.117.652-.04.472h-5.646l.356-1.527h3.393l.016-.192-.008-.187-.016-.17-.03-.155-.056-.146-.053-.132-.08-.116-.077-.11-.092-.092-.1-.077-.116-.07-.118-.06-.122-.047-.125-.033-.132-.022-.138-.016-.15.007-.137.023-.13.032-.133.046-.134.06-.115.07-.117.086-.098.093-.1.11-.095.115-.083.124-.072.133-.07.138-.053.154-.046.155-.033.163-.31 1.604"/><path fill-rule="evenodd" clip-rule="evenodd" fill="#FFF" d="M78.23 37.938l-.102-.054-.1-.048-.108-.054-.117-.054-.116-.046-.13-.047-.133-.047-.14-.046-.147-.04-.148-.028-.164-.033-.162-.023-.177-.016-.18-.012h-.573l-.203.013-.207.027-.22.037-.214.062-.217.085-.215.11-.22.138-.21.17-.2.202-.193.25-.186.286-.172.34-.162.387-.145.436-.124.494-.046.278-.032.27-.016.272.008.264.024.263.054.25.07.232.085.232.115.21.14.2.164.178.185.163.21.14.24.115.262.102.295.07.1.022.116.024.14.016.156.015.17.015h.372l.194-.016.2-.025.202-.038.193-.055.194-.06.194-.087.18-.1.16-.124.156-.14-.35 2.07-.044.04-.048.046-.062.054-.07.044-.083.063-.11.054-.124.055-.14.046-.178.057-.2.038-.234.032-.27.03-.302.016-.35.01-.394-.01-.436-.024-.355-.04-.355-.077-.358-.115-.354-.156-.34-.185-.326-.233-.31-.272-.288-.308-.256-.35-.218-.386-.184-.434-.14-.473-.092-.518-.032-.55.016-.604.084-.643.063-.317.072-.31.075-.303.078-.286.086-.273.1-.27.102-.256.107-.24.118-.24.115-.224.132-.217.14-.202.138-.194.154-.186.155-.17.164-.163.177-.155.18-.147.185-.132.195-.123.208-.117.21-.1.217-.093.225-.085.24-.078.24-.062.248-.053.262-.047.264-.04.278-.03.28-.015.295-.01.246.01.24.014.232.024.234.03.217.03.21.048.198.038.187.047.177.046.155.046.148.048.124.046.106.037.094.032.07.03.048.017-.39 2.146"/><path fill="none" stroke="#FFF" stroke-width=".216" stroke-miterlimit="2.613" d="M78.23 37.938l-.102-.054-.1-.048-.108-.054-.117-.054-.116-.046-.13-.047-.133-.047-.14-.046-.147-.04-.148-.028-.164-.033-.162-.023-.177-.016-.18-.012h-.573l-.203.013-.207.027-.22.037-.214.062-.217.085-.215.11-.22.138-.21.17-.2.202-.193.25-.186.286-.172.34-.162.387-.145.436-.124.494-.046.278-.032.27-.016.272.008.264.024.263.054.25.07.232.085.232.115.21.14.2.164.178.185.163.21.14.24.115.262.102.295.07.1.022.116.024.14.016.156.015.17.015h.372l.194-.016.2-.025.202-.038.193-.055.194-.06.194-.087.18-.1.16-.124.156-.14-.35 2.07-.044.04-.048.046-.062.054-.07.044-.083.063-.11.054-.124.055-.14.046-.178.057-.2.038-.234.032-.27.03-.302.016-.35.01-.394-.01-.436-.024-.355-.04-.355-.077-.358-.115-.354-.156-.34-.185-.326-.233-.31-.272-.288-.308-.256-.35-.218-.386-.184-.434-.14-.473-.092-.518-.032-.55.016-.604.084-.643.063-.317.072-.31.075-.303.078-.286.086-.273.1-.27.102-.256.107-.24.118-.24.115-.224.132-.217.14-.202.138-.194.154-.186.155-.17.164-.163.177-.155.18-.147.185-.132.195-.123.208-.117.21-.1.217-.093.225-.085.24-.078.24-.062.248-.053.262-.047.264-.04.278-.03.28-.015.295-.01.246.01.24.014.232.024.234.03.217.03.21.048.198.038.187.047.177.046.155.046.148.048.124.046.106.037.094.032.07.03.048.017-.39 2.146"/><path fill-rule="evenodd" clip-rule="evenodd" fill="#FFF" d="M97.3 45.77h-2.145l.156-.86v-.08l-.125.157-.13.138-.13.123-.14.11-.142.102-.14.083-.14.07-.147.07-.146.054-.147.04-.148.037-.155.022-.155.025-.148.016-.153.01h-.156l-.403-.032-.37-.085-.34-.133-.312-.177-.28-.227-.246-.26-.217-.29-.186-.324-.155-.35-.125-.364-.085-.378-.062-.397-.022-.394.006-.403.04-.394.07-.396.116-.46.14-.43.16-.397.196-.37.2-.35.232-.31.24-.278.256-.257.272-.225.286-.193.295-.17.293-.133.31-.11.31-.067.31-.047.318-.014.225.005.216.023.203.04.187.054.176.06.155.07.155.087.14.084.124.09.115.104.1.1.094.1.078.102.07.1.06.094.048.093.542-3.043h2.108L97.3 45.77"/><path fill="none" stroke="#FFF" stroke-width=".216" stroke-miterlimit="2.613" d="M97.3 45.77h-2.145l.156-.86v-.08l-.125.157-.13.138-.13.123-.14.11-.142.102-.14.083-.14.07-.147.07-.146.054-.147.04-.148.037-.155.022-.155.025-.148.016-.153.01h-.156l-.403-.032-.37-.085-.34-.133-.312-.177-.28-.227-.246-.26-.217-.29-.186-.324-.155-.35-.125-.364-.085-.378-.062-.397-.022-.394.006-.403.04-.394.07-.396.116-.46.14-.43.16-.397.196-.37.2-.35.232-.31.24-.278.256-.257.272-.225.286-.193.295-.17.293-.133.31-.11.31-.067.31-.047.318-.014.225.005.216.023.203.04.187.054.176.06.155.07.155.087.14.084.124.09.115.104.1.1.094.1.078.102.07.1.06.094.048.093.542-3.043h2.108L97.3 45.77"/><path fill-rule="evenodd" clip-rule="evenodd" fill="#FBB230" d="M93.792 43.895l.217-.016.2-.048.186-.055.18-.085.16-.09.156-.12.145-.13.134-.14.116-.156.11-.17.1-.178.085-.185.077-.195.064-.2.054-.21.038-.208.04-.217.024-.224v-.212l-.01-.216-.02-.2-.034-.195-.053-.186-.063-.178-.078-.153-.093-.15-.1-.125-.116-.107-.13-.093-.143-.062-.145-.04-.163-.014-.21.014-.194.032-.178.06-.18.078-.155.102-.153.123-.132.13-.132.148-.117.17-.108.18-.102.184-.086.202-.076.21-.06.21-.063.222-.048.226-.04.342.018.37.055.38.1.364.154.32.202.254.254.17.312.063"/><path fill-rule="evenodd" clip-rule="evenodd" fill="#FFF" d="M46.22 44.05l-.31 1.72h-1.95l.053-.32.04-.285.03-.218.03-.116-.106.125-.126.124-.145.115-.163.11-.185.107-.196.093-.2.093-.207.077-.225.07-.226.056-.223.047-.234.03-.226.016-.222.007-.218-.024-.21-.03-.272-.07-.248-.077-.216-.102-.194-.117-.17-.122-.155-.14-.123-.147-.11-.153-.09-.163-.08-.17-.06-.17-.047-.17-.032-.18-.023-.18-.017-.17v-.17l.025-.302.047-.286.076-.27.102-.264.124-.248.14-.224.163-.217.184-.194.194-.18.217-.163.223-.146.234-.123.247-.108.256-.087.263-.07.27-.047h.016l.037-.008.054-.006.086-.007.094-.017.107-.008.116-.015.133-.015.132-.016.132-.015.14-.01.123-.016.124-.006.115-.01.106-.005h.266l.187.006.168.008h.17l.14.006.11.01.074.007h.025l.016-.053.045-.14.04-.163.014-.147-.03-.17-.07-.155-.093-.14-.124-.116-.148-.1-.162-.07-.187-.047-.202-.015-.217-.008-.233-.008h-.24l-.246.007-.254.015-.25.023-.246.023-.24.03-.233.032-.225.04-.2.037-.187.04-.17.047-.14.045-.108.054-.086.045.55-1.867.173-.07.17-.062.186-.052.185-.04.185-.04.202-.03.2-.03.21-.017.217-.012.222-.008.234-.01h.743l.27.01.272.008.216.013.234.04.24.055.246.07.24.093.235.11.23.13.218.147.194.172.17.185.158.208.115.233.078.25.045.26v.295l-.045.31-.784 4.09"/><path fill="none" stroke="#FFF" stroke-width=".216" stroke-miterlimit="2.613" d="M46.22 44.05l-.31 1.72h-1.95l.053-.32.04-.285.03-.218.03-.116-.106.125-.126.124-.145.115-.163.11-.185.107-.196.093-.2.093-.207.077-.225.07-.226.056-.223.047-.234.03-.226.016-.222.007-.218-.024-.21-.03-.272-.07-.248-.077-.216-.102-.194-.117-.17-.122-.155-.14-.123-.147-.11-.153-.09-.163-.08-.17-.06-.17-.047-.17-.032-.18-.023-.18-.017-.17v-.17l.025-.302.047-.286.076-.27.102-.264.124-.248.14-.224.163-.217.184-.194.194-.18.217-.163.223-.146.234-.123.247-.108.256-.087.263-.07.27-.047h.016l.037-.008.054-.006.086-.007.094-.017.107-.008.116-.015.133-.015.132-.016.132-.015.14-.01.123-.016.124-.006.115-.01.106-.005h.266l.187.006.168.008h.17l.14.006.11.01.074.007h.025l.016-.053.045-.14.04-.163.014-.147-.03-.17-.07-.155-.093-.14-.124-.116-.148-.1-.162-.07-.187-.047-.202-.015-.217-.008-.233-.008h-.24l-.246.007-.254.015-.25.023-.246.023-.24.03-.233.032-.225.04-.2.037-.187.04-.17.047-.14.045-.108.054-.086.045.55-1.867.173-.07.17-.062.186-.052.185-.04.185-.04.202-.03.2-.03.21-.017.217-.012.222-.008.234-.01h.743l.27.01.272.008.216.013.234.04.24.055.246.07.24.093.235.11.23.13.218.147.194.172.17.185.158.208.115.233.078.25.045.26v.295l-.045.31-.784 4.09"/><path fill-rule="evenodd" clip-rule="evenodd" fill="#EB2230" d="M44.355 42.026l-.007-.04-.033-.036-.045-.024-.078-.015-.086-.014-.1-.01h-.234l-.126.01-.13.015-.124.016-.123.015-.117.018-.11.02-.09.026-.087.022-.054.015-.06.026-.087.032-.085.037-.1.047-.102.054-.107.055-.1.063-.108.077-.1.077-.094.094-.086.093-.077.1-.055.11-.047.123-.022.123-.007.264.04.208.075.155.102.118.116.076.13.048.125.023.127.01.233-.01.21-.022.2-.033.175-.046.16-.055.144-.068.13-.07.118-.085.102-.078.092-.094.077-.083.06-.094.055-.093.046-.092.04-.086.022-.086.064-.223.054-.257.045-.247.04-.204"/><path fill-rule="evenodd" clip-rule="evenodd" fill="#FFF" d="M29.923 45.77h-2.107l1.758-10.172h3.665l.347 6.034 2.533-6.034h3.826l-1.798 10.17h-2.106l1.332-7.598h-.084l-3.153 7.6H31.76l-.015-.32-.055-.844-.07-1.2-.078-1.38-.078-1.385-.07-1.214-.054-.885-.016-.37h-.115l-1.287 7.6"/><path fill="none" stroke="#FFF" stroke-width=".216" stroke-miterlimit="2.613" d="M29.923 45.77h-2.107l1.758-10.172h3.665l.347 6.034 2.533-6.034h3.826l-1.798 10.17h-2.106l1.332-7.598h-.084l-3.153 7.6H31.76l-.015-.32-.055-.844-.07-1.2-.078-1.38-.078-1.385-.07-1.214-.054-.885-.016-.37h-.115l-1.287 7.6"/><path fill-rule="evenodd" clip-rule="evenodd" fill="#FFF" d="M84.667 44.05l-.317 1.72h-1.946l.017-.32.01-.277v-.21l.014-.092-.1.117-.118.116-.14.108-.153.11-.164.1-.186.093-.193.093-.193.077-.212.062-.214.062-.217.04-.215.03-.228.016-.214.007-.21-.024-.21-.03-.278-.07-.248-.077-.217-.102-.2-.117-.173-.122-.147-.14-.123-.147-.11-.153-.09-.163-.072-.17-.06-.17-.04-.17-.03-.18-.025-.18-.016-.17v-.17l.016-.302.048-.286.07-.27.1-.264.116-.248.15-.224.16-.217.178-.194.204-.18.207-.163.225-.146.24-.123.24-.108.255-.087.255-.07.264-.047h.016l.04-.008.053-.006.08-.007.098-.017.11-.008.116-.015.124-.015.13-.016.14-.015.132-.01.134-.016.123-.006.107-.01.108-.005h.27l.188.006.178.008h.17l.147.006.126.01.07.007h.03l.015-.053.025-.14.02-.163.018-.147-.032-.17-.06-.155-.1-.14-.12-.116-.137-.1-.162-.07-.172-.047-.184-.015-.218-.008-.23-.008h-.243l-.246.007-.256.015-.248.023-.247.023-.24.03-.232.032-.224.04-.2.037-.187.04-.172.047-.14.045-.108.054-.085.045.543-1.867.17-.07.178-.062.177-.052.187-.04.194-.04.193-.03.2-.03.21-.017.218-.012.226-.008.223-.01h.73l.263.01.263.008.216.013.233.04.24.055.248.07.24.093.238.11.234.13.216.147.194.172.18.185.153.208.116.233.084.25.054.26v.295l-.038.31-.813 4.09"/><path fill-rule="evenodd" clip-rule="evenodd" fill="#FFF" d="M84.35 45.822l.046-.046.317-1.72-.094-.015-.318 1.722.048-.048v.108l.038-.008.008-.038-.046.046"/><path fill-rule="evenodd" clip-rule="evenodd" fill="#FFF" d="M82.356 45.77l.048.052h1.946v-.108h-1.946l.046.055h-.094l-.005.052h.054l-.048-.053"/><path fill-rule="evenodd" clip-rule="evenodd" fill="#FFF" d="M82.482 44.9l-.07-.06-.03.124-.01.21v.277l-.016.32h.094l.017-.32.015-.277-.01-.21V44.9l-.068-.06.078.06"/><path fill-rule="evenodd" clip-rule="evenodd" fill="#FFF" d="M79.47 45.893l.215.03.21.023.215-.006.228-.016.224-.03.216-.04.215-.06.218-.065.194-.078.2-.092.187-.092.164-.11.164-.11.14-.106.123-.124.102-.12-.078-.06-.1.117-.11.108-.138.11-.148.107-.163.094-.185.094-.186.092-.193.077-.202.062-.215.062-.218.04-.207.028-.228.017-.214.007-.21-.024-.204-.03-.013.093M77.593 43.544l.01.17.014.17.022.188.03.178.04.17.062.18.07.176.1.163.11.163.123.145.156.148.178.125.2.126.227.1.253.076.28.07.014-.09-.276-.073-.24-.078-.21-.1-.202-.11-.163-.122-.14-.133-.122-.147-.108-.147-.083-.163-.073-.163-.06-.16-.04-.172-.032-.178-.02-.172-.017-.17.008-.17h-.11"/><path fill-rule="evenodd" clip-rule="evenodd" fill="#FFF" d="M80.374 40.57l-.27.046-.262.072-.255.083-.25.11-.24.124-.234.155-.208.163-.2.185-.188.193-.162.218-.155.233-.116.257-.102.262-.07.278-.045.294-.024.302h.11l.008-.302.047-.278.07-.263.1-.262.117-.24.14-.22.163-.214.17-.193.2-.17.21-.164.215-.138.24-.125.232-.108.257-.085.248-.07.256-.046v-.094"/><path fill-rule="evenodd" clip-rule="evenodd" fill="#FFF" d="M81.97 40.407h-.085l-.108.017-.108.01-.124.005-.134.014-.132.01-.14.014-.13.015-.124.016-.115.014-.11.007-.098.02-.08.005-.06.007-.032.008h-.016v.094h.016l.048-.01.045-.006.08-.007.098-.015.11-.01.116-.013.124-.016.13-.016.14-.015.132-.006.134-.02.123-.006.107-.007h.193v-.11M83.017 40.493l.047-.04h-.032l-.07-.006-.125-.008-.146-.016h-.347l-.188-.017h-.185v.11h.373l.178.014h.317l.126.01.07.01h.03l.045-.04-.044.04.04.005.004-.046-.09-.017"/><path fill-rule="evenodd" clip-rule="evenodd" fill="#FFF" d="M83.095 39.997h-.01l-.007.147-.023.156-.023.14-.015.053.09.016.017-.056.024-.14.024-.17.024-.147H83.096M82.172 39.23v.008l.18.008.16.047.156.07.132.092.107.11.094.13.064.14.03.162h.093l-.03-.177-.062-.172-.11-.146-.124-.125-.146-.108-.172-.07-.177-.047-.193-.022v.101M78.85 39.603l.077.045.078-.04.1-.052.13-.047.172-.046.186-.038.2-.04.226-.04.222-.03.24-.032.248-.023.248-.022.256-.014h.72l.22.007v-.092l-.22-.007-.23-.017h-.242l-.246.018-.256.016-.248.023-.247.022-.24.032-.24.03-.226.04-.2.038-.186.04-.168.044-.148.048-.117.053-.094.055.08.046-.094-.015"/><path fill-rule="evenodd" clip-rule="evenodd" fill="#FFF" d="M79.423 37.696l-.032.04-.54 1.867.092.015.54-1.868-.03.04-.03-.094-.023.008-.01.032.033-.04"/><path fill-rule="evenodd" clip-rule="evenodd" fill="#FFF" d="M82.87 37.342l-.264-.016-.263-.01h-.73l-.222.018-.225.008-.217.015-.21.013-.21.03-.19.034-.195.04-.188.037-.185.054-.177.063-.17.07.03.093.17-.07.18-.062.168-.055.188-.04.194-.037.193-.03.193-.032.21-.015.217-.016.226-.007h.953l.263.007h.263v-.092"/><path fill-rule="evenodd" clip-rule="evenodd" fill="#FFF" d="M85.526 39.967l.04-.32v-.293l-.054-.27-.085-.257-.124-.24-.156-.216-.187-.192-.193-.17-.224-.15-.232-.137-.247-.11-.24-.092-.257-.07-.24-.052-.24-.04-.217-.014v.092l.216.015.224.038.24.054.242.07.24.092.23.11.233.124.21.146.193.17.17.18.155.2.11.226.085.24.055.254v.294l-.04.303.093.017M84.713 44.057l.813-4.09-.093-.016-.814 4.09.093.017"/><path fill-rule="evenodd" clip-rule="evenodd" fill="#FBB230" d="M82.79 42.026l-.015-.047-.03-.04-.054-.022-.078-.022-.084-.01-.1-.007h-.116l-.117.007-.125.016-.122.015-.123.016-.118.016-.115.024-.102.013-.1.025-.078.014-.053.008-.063.024-.078.023-.087.032-.1.045-.095.048-.108.055-.1.068-.1.07-.1.086-.086.083-.086.102-.068.108-.055.117-.046.124-.026.13-.007.264.038.208.063.155.092.118.116.076.133.048.13.023.133.01.23-.01.218-.022.202-.04.18-.053.17-.062.146-.07.14-.078.124-.093.11-.085.09-.1.087-.094.068-.1.054-.094.038-.094.032-.092.024-.085.03-.22.04-.222.03-.217.015-.194"/><path fill-rule="evenodd" clip-rule="evenodd" fill="#FFF" d="M98.75 44.708l.015-.18.06-.21.11-.183.132-.164.162-.13.184-.093.2-.063.22-.022.218.022.2.063.186.093.163.13.13.165.11.184.063.21.016.178h-.234l-.008-.14-.046-.17-.077-.155-.102-.133-.124-.108-.146-.077-.17-.054-.18-.015-.18.016-.168.055-.15.077-.123.108-.1.133-.078.154-.046.17-.016.14h-.225"/><path fill-rule="evenodd" clip-rule="evenodd" fill="#FFF" d="M99.446 44.708v-.465h.427l.094.007.085.016.06.023.056.03.037.046.03.047.016.054.01.054-.01.07-.015.055-.02.047-.018.016h-.324l.03-.01.053-.006.048-.015.04-.017.03-.02.016-.027.015-.036v-.056l-.01-.037-.013-.032-.026-.013-.022-.016-.038-.007-.04-.007h-.317v.302h-.194M98.75 44.708l-.008.046.023.225.06.207.11.187.132.154.162.13.184.104.2.06.22.025.218-.025.2-.06.186-.103.163-.132.13-.154.11-.187.063-.208.024-.226-.008-.046h-.234l.008.046-.016.185-.046.17-.077.15-.102.128-.124.11-.146.083-.17.057-.18.015-.18-.015-.168-.056-.15-.082-.123-.11-.1-.13-.078-.147-.046-.17-.016-.186v-.046h-.225"/><path fill-rule="evenodd" clip-rule="evenodd" fill="#FFF" d="M99.446 44.708v.473h.194v-.387h.193l.233.388h.154l-.232-.387h.056l.052-.017.048-.015.04-.03.013-.022h-.324l-.04.007h-.193v-.007h-.194"/><path d="M98.742 44.754l.022-.225.062-.21.11-.186.13-.164.162-.13.186-.094.2-.063.22-.02.218.02.2.063.187.093.16.13.132.164.107.185.063.21.023.224-.023.225-.064.207-.108.188-.13.154-.163.13-.19.103-.198.06-.22.025-.217-.024-.2-.06-.187-.104-.16-.13-.133-.155-.11-.188-.06-.208-.023-.226m.898.427h-.193v-.937h.427l.094.007.085.016.06.024.057.03.037.047.03.047.016.054.01.054-.01.07-.016.054-.02.048-.03.038-.04.03-.05.016-.05.017h-.057l.23.388h-.152l-.233-.388h-.195v.386m.193-.465l.07-.016.053-.008.048-.016.04-.017.03-.022.016-.025.016-.036v-.057l-.01-.037-.014-.032-.026-.014-.02-.016-.04-.008-.04-.007h-.316v.31h.193m0 .937l.18-.016.17-.056.147-.083.124-.11.102-.13.077-.146.046-.17.016-.187-.017-.186-.047-.17-.077-.154-.102-.133-.124-.108-.146-.077-.17-.054-.18-.015-.18.016-.168.055-.15.077-.123.108-.1.133-.078.154-.046.17-.017.186.016.186.045.17.078.148.1.13.124.11.15.082.168.056.178.016" fill="none" stroke="#FFF" stroke-width=".216" stroke-miterlimit="2.613"/><path fill-rule="evenodd" clip-rule="evenodd" fill="#FFF" d="M85.247 45.77h2.185l.783-4.41.03-.17.045-.17.048-.17.062-.17.078-.17.09-.164.103-.155.127-.146.138-.13.155-.126.178-.116.2-.094.225-.076.247-.062.272-.047.303-.016H90.708l.35-1.99-.218.014-.21.027-.192.037-.186.054-.172.062-.16.078-.156.085-.146.093-.14.11-.133.107-.123.125-.124.123-.118.133-.114.146-.117.14-.11.154.232-1.4h-2.176l-1.45 8.295"/><path fill="none" stroke="#FFF" stroke-width=".216" stroke-miterlimit="2.613" d="M85.247 45.77h2.185l.783-4.41.03-.17.045-.17.048-.17.062-.17.078-.17.09-.164.103-.155.127-.146.138-.13.155-.126.178-.116.2-.094.225-.076.247-.062.272-.047.303-.016H90.708l.35-1.99-.218.014-.21.027-.192.037-.186.054-.172.062-.16.078-.156.085-.146.093-.14.11-.133.107-.123.125-.124.123-.118.133-.114.146-.117.14-.11.154.232-1.4h-2.176l-1.45 8.295"/><path fill-rule="evenodd" clip-rule="evenodd" fill="#FFF" d="M64.735 45.77h2.223l.743-4.41.033-.17.038-.162.04-.163.054-.155.063-.155.077-.148.092-.138.11-.133.123-.117.14-.115.168-.093.187-.085.218-.072.24-.06.262-.04.303-.023h.022l.03.008.04.008h.04l.04.008.03.008.02.008h.01l.01-.032.02-.093.03-.138.04-.172.054-.2.054-.22.072-.216.068-.218.063-.146.08-.15.076-.144.077-.132.07-.115.054-.094.038-.054.015-.023h-.007l-.03-.01-.04-.008-.054-.01h-.055l-.062-.004-.053-.008h-.054l-.24.013-.217.027-.204.037-.186.047-.18.063-.16.077-.148.078-.14.092-.13.102-.125.115-.115.118-.118.13-.115.133-.11.147-.117.154-.115.154.28-1.4h-2.223l-1.45 8.295"/><path fill="none" stroke="#FFF" stroke-width=".216" stroke-miterlimit="2.613" d="M64.735 45.77h2.223l.743-4.41.033-.17.038-.162.04-.163.054-.155.063-.155.077-.148.092-.138.11-.133.123-.117.14-.115.168-.093.187-.085.218-.072.24-.06.262-.04.303-.023h.022l.03.008.04.008h.04l.04.008.03.008.02.008h.01l.01-.032.02-.093.03-.138.04-.172.054-.2.054-.22.072-.216.068-.218.063-.146.08-.15.076-.144.077-.132.07-.115.054-.094.038-.054.015-.023h-.007l-.03-.01-.04-.008-.054-.01h-.055l-.062-.004-.053-.008h-.054l-.24.013-.217.027-.204.037-.186.047-.18.063-.16.077-.148.078-.14.092-.13.102-.125.115-.115.118-.118.13-.115.133-.11.147-.117.154-.115.154.28-1.4h-2.223l-1.45 8.295"/><path fill-rule="evenodd" clip-rule="evenodd" fill="#FBB230" d="M98.765 53.918v-.03l.06-.202.11-.18.132-.153.162-.124.184-.094.2-.055.22-.022.218.023.2.056.186.093.163.123.13.154.11.18.063.2v.03h-.225l-.046-.16-.077-.15-.102-.13-.124-.11-.146-.084-.17-.054-.18-.017-.18.016-.168.053-.15.085-.123.11-.1.13-.078.148-.046.162h-.225"/><path fill-rule="evenodd" clip-rule="evenodd" fill="#FBB230" d="M99.446 53.918v-.27h.521l.085.014.06.015.056.03.037.04.03.047.016.054.01.07h-.155v-.04l-.01-.038-.013-.03-.026-.016-.022-.016-.038-.007-.04-.006h-.317v.154h-.194M98.742 54.088l.023-.17h.224v.007l-.016.163h-.232"/><path fill-rule="evenodd" clip-rule="evenodd" fill="#FBB230" d="M99.446 54.088v-.17h.194v.154h.193l.07-.013.053-.01.048-.017.04-.014.03-.025.016-.023.015-.037v-.017h.155l-.01.054-.015.047-.02.04-.03.028h-.74M100.694 54.088l-.016-.163v-.007h.225l.024.17h-.233M98.742 54.088v.023l.023.225.06.21.11.185.132.164.162.13.184.093.2.064.22.023.218-.022.2-.063.186-.092.163-.13.13-.165.11-.185.063-.21.024-.224v-.022h-.233v.023l-.016.187-.046.17-.077.147-.102.13-.124.11-.146.086-.17.055-.18.015-.18-.015-.168-.055-.15-.085-.123-.11-.1-.13-.078-.147-.046-.17-.016-.187v-.022h-.232"/><path fill-rule="evenodd" clip-rule="evenodd" fill="#FBB230" d="M99.446 54.088v.45h.194v-.39h.193l.233.39h.154l-.232-.39h.056l.052-.013.048-.016.04-.032h-.738"/><path d="M64.975 39.942l-.062-.463-.107-.413-.156-.355-.193-.31-.232-.266-.256-.216-.28-.186-.3-.14-.312-.117-.32-.078-.313-.055-.32-.03-.3-.01-.628.034-.558.09-.505.14-.45.195-.388.23-.34.265-.302.294-.25.31-.214.326-.18.34-.137.335-.117.33-.086.327-.062.3-.046.288-.032.25-.038.636.022.57.085.52.13.457.19.41.223.357.263.318.303.263.324.227.35.192.364.148.378.114.39.094.386.055.387.04.38.007h.255l.24-.007h.21l.2-.01.18-.015.16-.015.156-.016.14-.024.132-.023.124-.03.126-.04.115-.036.115-.047.124-.045.125-.064.125-.06.31-1.907-.226.133-.217.122-.225.094-.218.086-.21.07-.215.045-.21.04-.21.03-.207.016-.204.008h-.21l-.198-.007-.203-.016-.2-.023L61.36 44l-.203-.03-.157-.03-.153-.056-.157-.067-.138-.087-.14-.093-.123-.114-.117-.116-.11-.134-.093-.13-.084-.147-.062-.14-.056-.148-.032-.147-.012-.146.006-.13.02-.102h5.023l.04-.472.115-.652.054-.59-.007-.526zm-2.1.713h-2.83l.003-.007h-.004l.02-.108.032-.163.046-.155.054-.153.07-.14.07-.134.084-.124.094-.116.102-.108.098-.093.118-.086.115-.07.134-.062.133-.046.13-.032.14-.022.148-.008.14.016.13.023.126.03.122.047.117.062.116.07.102.076.092.093.077.107.08.116.053.132.056.147.03.155.015.17.008.186-.017.192z" fill-rule="evenodd" clip-rule="evenodd" fill="#FFF"/></svg>