<svg width="240" height="150" fill="none" xmlns="http://www.w3.org/2000/svg"><path d="M199.375 0H39.625a26.704 26.704 0 00-18.827 7.753A26.393 26.393 0 0013 26.471v97.058a26.393 26.393 0 007.798 18.718A26.705 26.705 0 0039.625 150h159.75a26.706 26.706 0 0018.827-7.753A26.393 26.393 0 00226 123.529V26.471c0-7.02-2.805-13.754-7.798-18.718A26.705 26.705 0 00199.375 0zM39.625 17.647h159.75c2.354 0 4.611.93 6.276 2.584a8.799 8.799 0 012.599 6.24v8.823a4.4 4.4 0 01-1.3 3.12 4.45 4.45 0 01-3.138 1.292H35.187a4.45 4.45 0 01-3.137-1.292 4.399 4.399 0 01-1.3-3.12v-8.823c0-2.34.935-4.585 2.6-6.24a8.901 8.901 0 016.275-2.584zm159.75 114.706H39.625a8.904 8.904 0 01-6.276-2.584 8.798 8.798 0 01-2.599-6.24v-52.94c0-1.17.468-2.293 1.3-3.12a4.45 4.45 0 013.138-1.292h168.624a4.45 4.45 0 013.138 1.292 4.4 4.4 0 011.3 3.12v52.94a8.8 8.8 0 01-2.599 6.24 8.906 8.906 0 01-6.276 2.584z" fill="#485F6F"/><path d="M84.2 97H57.8c-2.334 0-4.572.895-6.222 2.49-1.65 1.594-2.578 3.756-2.578 6.01s.927 4.416 2.578 6.01A8.96 8.96 0 0057.8 114h26.4a8.96 8.96 0 006.222-2.49c1.65-1.594 2.578-3.756 2.578-6.01s-.927-4.416-2.578-6.01C88.772 97.896 86.534 97 84.2 97z" fill="#485F6F"/></svg>